<svg width="15" height="18" viewBox="0 0 15 18" fill="none" xmlns="http://www.w3.org/2000/svg">
<path d="M12.5059 17.28C11.5404 18.2268 10.4751 18.0792 9.45963 17.6328C8.38006 17.1774 7.39312 17.1486 6.25298 17.6328C4.83314 18.252 4.07958 18.072 3.22447 17.28C-1.60332 12.258 -0.890729 4.60803 4.59621 4.32003C5.92697 4.39203 6.85868 5.06343 7.64253 5.11923C8.80761 4.87983 9.92281 4.19403 11.1698 4.28403C12.6681 4.40643 13.7886 5.00403 14.5368 6.07863C11.4549 7.95063 12.1853 12.0546 15.016 13.2066C14.4495 14.7096 13.7227 16.1946 12.5042 17.2926L12.5059 17.28ZM7.53564 4.26603C7.39134 2.03403 9.18172 0.198036 11.2411 0.0180359C11.5244 2.59203 8.92519 4.51803 7.53564 4.26603Z" fill="#E0E5F2"/>
</svg>
