<svg width="16" height="18" viewBox="0 0 16 18" fill="none" xmlns="http://www.w3.org/2000/svg">
<path d="M14 2.25H13.25V1.5C13.25 1.0875 12.9125 0.75 12.5 0.75C12.0875 0.75 11.75 1.0875 11.75 1.5V2.25H4.25V1.5C4.25 1.0875 3.9125 0.75 3.5 0.75C3.0875 0.75 2.75 1.0875 2.75 1.5V2.25H2C1.175 2.25 0.5 2.925 0.5 3.75V15.75C0.5 16.575 1.175 17.25 2 17.25H14C14.825 17.25 15.5 16.575 15.5 15.75V3.75C15.5 2.925 14.825 2.25 14 2.25ZM13.25 15.75H2.75C2.3375 15.75 2 15.4125 2 15V6H14V15C14 15.4125 13.6625 15.75 13.25 15.75Z" fill="#A3AED0"/>
</svg>
