<svg width="48" height="56" viewBox="0 0 48 56" fill="none" xmlns="http://www.w3.org/2000/svg">
<path d="M17.3334 42.3333H30.6668C32.5001 42.3333 34.0001 40.8333 34.0001 39V22.3333H39.3001C42.2668 22.3333 43.7668 18.7333 41.6668 16.6333L26.3668 1.33334C25.0668 0.0333374 22.9668 0.0333374 21.6668 1.33334L6.36675 16.6333C4.26675 18.7333 5.73341 22.3333 8.70008 22.3333H14.0001V39C14.0001 40.8333 15.5001 42.3333 17.3334 42.3333ZM4.00008 49H44.0001C45.8334 49 47.3334 50.5 47.3334 52.3333C47.3334 54.1667 45.8334 55.6667 44.0001 55.6667H4.00008C2.16675 55.6667 0.666748 54.1667 0.666748 52.3333C0.666748 50.5 2.16675 49 4.00008 49Z" fill="#4318FF"/>
</svg>
