<svg width="69" height="77" viewBox="0 0 69 77" fill="none" xmlns="http://www.w3.org/2000/svg">
<path d="M56.5294 9.94873C56.226 9.94873 55.9227 9.8729 55.6573 9.72123C48.3773 5.96748 42.0831 4.37498 34.5377 4.37498C27.0302 4.37498 19.9019 6.15706 13.4181 9.72123C12.5081 10.2141 11.3706 9.8729 10.8398 8.9629C10.3469 8.0529 10.6881 6.87748 11.5981 6.38456C18.6506 2.55498 26.3856 0.583313 34.5377 0.583313C42.6139 0.583313 49.6664 2.3654 57.4014 6.34665C58.3494 6.83956 58.6906 7.97706 58.1977 8.88706C57.8564 9.56956 57.2119 9.94873 56.5294 9.94873ZM2.2706 29.855C1.89144 29.855 1.51227 29.7412 1.17102 29.5137C0.298937 28.9071 0.109353 27.7316 0.71602 26.8596C4.46977 21.5512 9.24727 17.3804 14.9348 14.4608C26.8406 8.31831 42.0831 8.2804 54.0269 14.4229C59.7144 17.3425 64.4919 21.4754 68.2456 26.7458C68.8523 27.58 68.6627 28.7933 67.7906 29.4C66.9185 30.0066 65.7431 29.8171 65.1364 28.945C61.7239 24.1675 57.4014 20.4137 52.2827 17.7975C41.4006 12.2237 27.4852 12.2237 16.641 17.8354C11.4844 20.4896 7.16185 24.2812 3.74935 29.0587C3.44602 29.5896 2.87727 29.855 2.2706 29.855ZM25.9685 75.6204C25.4756 75.6204 24.9827 75.4308 24.6414 75.0516C21.3427 71.7529 19.5606 69.6296 17.0202 65.0416C14.4039 60.3779 13.0389 54.6904 13.0389 48.5858C13.0389 37.3246 22.6698 28.1487 34.4998 28.1487C46.3298 28.1487 55.9606 37.3246 55.9606 48.5858C55.9606 49.6475 55.1264 50.4816 54.0648 50.4816C53.0031 50.4816 52.1689 49.6475 52.1689 48.5858C52.1689 39.41 44.2444 31.9404 34.4998 31.9404C24.7552 31.9404 16.8306 39.41 16.8306 48.5858C16.8306 54.0458 18.0439 59.0887 20.3569 63.1837C22.7835 67.5441 24.4519 69.4021 27.3714 72.3596C28.0919 73.1179 28.0919 74.2933 27.3714 75.0516C26.9544 75.4308 26.4614 75.6204 25.9685 75.6204ZM53.1548 68.6058C48.6427 68.6058 44.6614 67.4683 41.4006 65.2312C35.751 61.4016 32.3764 55.1833 32.3764 48.5858C32.3764 47.5241 33.2106 46.69 34.2723 46.69C35.3339 46.69 36.1681 47.5241 36.1681 48.5858C36.1681 53.9321 38.8981 58.975 43.5239 62.0841C46.216 63.9041 49.3631 64.7762 53.1548 64.7762C54.0648 64.7762 55.5814 64.6625 57.0981 64.3971C58.1218 64.2075 59.1077 64.89 59.2973 65.9516C59.4869 66.9754 58.8044 67.9612 57.7427 68.1508C55.5814 68.5679 53.6856 68.6058 53.1548 68.6058ZM45.5335 76.4166C45.3819 76.4166 45.1923 76.3787 45.0406 76.3408C39.0119 74.6725 35.0685 72.4354 30.9356 68.3783C25.6273 63.1079 22.7077 56.0933 22.7077 48.5858C22.7077 42.4433 27.9402 37.4383 34.386 37.4383C40.8319 37.4383 46.0644 42.4433 46.0644 48.5858C46.0644 52.6429 49.5906 55.9416 53.951 55.9416C58.3114 55.9416 61.8377 52.6429 61.8377 48.5858C61.8377 34.2912 49.5148 22.6887 34.3481 22.6887C23.5798 22.6887 13.7214 28.6796 9.28519 37.9691C7.80644 41.0404 7.0481 44.6425 7.0481 48.5858C7.0481 51.5433 7.31352 56.2071 9.58852 62.2737C9.96769 63.2596 9.47477 64.3591 8.48894 64.7004C7.5031 65.0796 6.40352 64.5487 6.06227 63.6008C4.20435 58.6337 3.29435 53.7046 3.29435 48.5858C3.29435 44.0358 4.16644 39.9029 5.87269 36.3008C10.9156 25.7221 22.101 18.8591 34.3481 18.8591C51.6002 18.8591 65.6293 32.1679 65.6293 48.5479C65.6293 54.6904 60.3969 59.6954 53.951 59.6954C47.5052 59.6954 42.2727 54.6904 42.2727 48.5479C42.2727 44.4908 38.7464 41.1921 34.386 41.1921C30.0256 41.1921 26.4994 44.4908 26.4994 48.5479C26.4994 55.0316 29.0019 61.0983 33.5898 65.6483C37.1919 69.2125 40.6423 71.1841 45.9885 72.6629C47.0123 72.9283 47.581 73.99 47.3156 74.9758C47.126 75.8479 46.3298 76.4166 45.5335 76.4166Z" fill="#4318FF"/>
</svg>
