<svg width="22" height="22" viewBox="0 0 22 22" fill="none" xmlns="http://www.w3.org/2000/svg">
<path d="M20.9 4H17V1C17 0.45 16.55 0 16 0C15.45 0 15 0.45 15 1V4H11.1C10.51 4 10.05 4.51 10.1 5.1L10.22 6.31C13.9 7.16 17 9.77 17 14L17.02 22H18.72C19.56 22 20.25 21.35 20.35 20.53L21.89 5.1C21.95 4.51 21.49 4 20.9 4ZM14 20H1C0.45 20 0 20.45 0 21C0 21.55 0.45 22 1 22H14C14.55 22 15 21.55 15 21C15 20.45 14.55 20 14 20ZM1.1 14H13.9C14.52 14 15.01 13.44 14.89 12.84C14.24 9.61 10.87 7.99 7.5 7.99C4.13 7.99 0.77 9.61 0.11 12.84C-0.00999998 13.44 0.49 14 1.1 14ZM14 16H1C0.45 16 0 16.45 0 17C0 17.55 0.45 18 1 18H14C14.55 18 15 17.55 15 17C15 16.45 14.55 16 14 16Z" fill="#A3AED0"/>
</svg>
