<svg width="20" height="20" viewBox="0 0 20 20" fill="none" xmlns="http://www.w3.org/2000/svg">
<path d="M19.7874 10.225C19.7874 9.56668 19.7291 8.94168 19.6291 8.33334H10.2124V12.0917H15.6041C15.3624 13.325 14.6541 14.3667 13.6041 15.075V17.575H16.8207C18.7041 15.8333 19.7874 13.2667 19.7874 10.225Z" fill="#4285F4"/>
<path d="M10.2126 20C12.9126 20 15.1709 19.1 16.8209 17.575L13.6043 15.075C12.7043 15.675 11.5626 16.0417 10.2126 16.0417C7.60427 16.0417 5.39593 14.2833 4.60427 11.9083H1.2876V14.4833C2.92926 17.75 6.30427 20 10.2126 20Z" fill="#34A853"/>
<path d="M4.60407 11.9083C4.39574 11.3083 4.2874 10.6667 4.2874 9.99999C4.2874 9.33333 4.40407 8.69166 4.60407 8.09166V5.51666H1.2874C0.604068 6.86666 0.212402 8.38333 0.212402 9.99999C0.212402 11.6167 0.604068 13.1333 1.2874 14.4833L4.60407 11.9083Z" fill="#FBBC05"/>
<path d="M10.2126 3.95833C11.6876 3.95833 13.0043 4.46667 14.0459 5.45834L16.8959 2.60833C15.1709 0.991667 12.9126 0 10.2126 0C6.30427 0 2.92926 2.25 1.2876 5.51667L4.60427 8.09167C5.39593 5.71667 7.60427 3.95833 10.2126 3.95833Z" fill="#EA4335"/>
</svg>
