<svg width="280" height="51" viewBox="0 0 280 51" fill="none" xmlns="http://www.w3.org/2000/svg">
<g clip-path="url(#clip0_101_9059)">
<path d="M255.649 13.6677V28.6195C255.649 31.6293 253.652 33.6358 250.656 33.6358C247.661 33.6358 245.664 31.6293 245.664 28.6195V13.6677H240.504V28.6195C240.504 34.0241 244.565 38.1666 250.656 38.1666C256.747 38.1666 260.808 34.0241 260.808 28.6195V13.6677H255.649ZM264.819 37.7783H269.978V13.6677H264.819V37.7783Z" fill="white"/>
<path fill-rule="evenodd" clip-rule="evenodd" d="M267.874 5.3491H242.03C237.912 5.3491 234.575 8.71801 234.575 12.8738V38.9593C234.575 43.115 237.912 46.4839 242.03 46.4839H267.874C271.992 46.4839 275.329 43.115 275.329 38.9593V12.8738C275.329 8.71801 271.992 5.3491 267.874 5.3491ZM242.03 0.834305C235.442 0.834305 230.102 6.22458 230.102 12.8738V38.9593C230.102 45.6085 235.442 50.9987 242.03 50.9987H267.874C274.462 50.9987 279.803 45.6085 279.803 38.9593V12.8738C279.803 6.22458 274.462 0.834305 267.874 0.834305H242.03Z" fill="white"/>
<path d="M51.3862 38.006H68.4988V45.5156H51.3862V38.006Z" fill="white"/>
<path d="M69.0941 39.5843C69.0941 37.1146 68.1299 34.746 66.4136 32.9997C64.6974 31.2534 62.3697 30.2723 59.9425 30.2723C57.5154 30.2723 55.1877 31.2534 53.4714 32.9997C51.7552 34.746 50.791 37.1146 50.791 39.5843H69.0941Z" fill="white"/>
<path fill-rule="evenodd" clip-rule="evenodd" d="M59.9798 41.9104C65.219 41.9104 69.4662 37.6236 69.4662 32.3356C69.4662 27.0476 65.219 22.7608 59.9798 22.7608C54.7407 22.7608 50.4935 27.0476 50.4935 32.3356C50.4935 37.6236 54.7407 41.9104 59.9798 41.9104ZM59.9798 49.42C69.3281 49.42 76.9064 41.7711 76.9064 32.3356C76.9064 22.9001 69.3281 15.2511 59.9798 15.2511C50.6315 15.2511 43.0532 22.9001 43.0532 32.3356C43.0532 41.7711 50.6315 49.42 59.9798 49.42ZM168.012 41.9104C173.252 41.9104 177.499 37.6236 177.499 32.3356C177.499 27.0476 173.252 22.7608 168.012 22.7608C162.773 22.7608 158.526 27.0476 158.526 32.3356C158.526 37.6236 162.773 41.9104 168.012 41.9104ZM168.012 49.42C177.36 49.42 184.939 41.7711 184.939 32.3356C184.939 22.9001 177.36 15.2511 168.012 15.2511C158.664 15.2511 151.086 22.9001 151.086 32.3356C151.086 41.7711 158.664 49.42 168.012 49.42Z" fill="white"/>
<path d="M0.197266 49.4163H8.06155V30.5182H28.7832V49.4163H36.7098V2.48593H28.7832V23.5259H8.06155V2.48593H0.197266V49.4163ZM99.4251 15.0847C95.3062 15.0847 92.0607 16.4705 90.313 20.1871V15.4627H83.2604V49.4163H90.7498V30.2032C90.7498 24.9117 93.8702 21.888 98.4891 21.888H102.546V15.0847H99.4251ZM106.964 10.9901H114.454V2.48593H106.964V10.9901ZM106.964 49.4163H114.454V15.4627H106.964V49.4163ZM118.794 49.4163H146.382V42.6129H128.906L146.32 21.6361V15.4627H119.606V22.266H136.458L118.794 43.2429V49.4163ZM206.345 14.7068C202.163 14.7068 198.669 16.4075 196.796 19.5572V15.4627H189.743V49.4163H197.233V29.2583C197.233 24.6597 200.104 21.699 204.41 21.699C208.655 21.699 211.525 24.6597 211.525 29.2583V49.4163H219.015V27.3685C219.015 19.9352 213.835 14.7068 206.345 14.7068Z" fill="white"/>
</g>
<defs>
<clipPath id="clip0_101_9059">
<rect width="279.605" height="50.1644" fill="white" transform="translate(0.197266 0.835114)"/>
</clipPath>
</defs>
</svg>
