<svg width="26" height="24" viewBox="0 0 26 24" fill="none" xmlns="http://www.w3.org/2000/svg">
<path d="M23.6663 4.04337L10.3547 17.3667L5.40801 12.42L7.05301 10.775L10.3547 14.0767L22.0213 2.41004L23.6663 4.04337ZM11.9997 21.3334C6.85467 21.3334 2.66634 17.145 2.66634 12C2.66634 6.85504 6.85467 2.66671 11.9997 2.66671C13.8313 2.66671 15.5463 3.20337 16.993 4.12504L18.6847 2.43337C16.783 1.11504 14.4847 0.333374 11.9997 0.333374C5.55967 0.333374 0.333008 5.56004 0.333008 12C0.333008 18.44 5.55967 23.6667 11.9997 23.6667C14.018 23.6667 15.9197 23.1534 17.5763 22.2434L15.8263 20.4934C14.6597 21.03 13.3647 21.3334 11.9997 21.3334ZM20.1663 15.5H16.6663V17.8334H20.1663V21.3334H22.4997V17.8334H25.9997V15.5H22.4997V12H20.1663V15.5Z" fill="white"/>
</svg>
