<svg width="20" height="25" viewBox="0 0 20 25" fill="none" xmlns="http://www.w3.org/2000/svg">
<path d="M18.7265 13.4084C16.8948 8.64835 10.3732 8.39169 11.9482 1.47335C12.0648 0.960021 11.5165 0.563355 11.0732 0.831688C6.83817 3.32835 3.79317 8.33335 6.34817 14.89C6.55817 15.4267 5.92817 15.9284 5.47317 15.5784C3.3615 13.98 3.13984 11.6817 3.3265 10.0367C3.3965 9.43002 2.60317 9.13835 2.26484 9.64002C1.4715 10.8534 0.666504 12.8134 0.666504 15.765C1.10984 22.2984 6.62817 24.305 8.61151 24.5617C11.4465 24.9234 14.5148 24.3984 16.7198 22.38C19.1465 20.1284 20.0332 16.535 18.7265 13.4084ZM7.89984 19.2767C9.57984 18.8684 10.4432 17.655 10.6765 16.5817C11.0615 14.9134 9.5565 13.28 10.5715 10.6434C10.9565 12.825 14.3865 14.19 14.3865 16.57C14.4798 19.5217 11.2832 22.0534 7.89984 19.2767Z" fill="#EE5D50"/>
</svg>
