<svg width="16" height="18" viewBox="0 0 16 18" fill="none" xmlns="http://www.w3.org/2000/svg">
<path d="M4.89931 0.0514475C4.81154 0.0522489 4.72043 0.0725092 4.63743 0.116532C4.37383 0.256335 4.27716 0.580445 4.42316 0.832463L5.01835 1.8608C3.58439 2.70974 2.63417 4.15974 2.63417 5.81469C2.63417 5.82163 2.63415 5.83207 2.63417 5.84235C2.63417 5.84597 2.63413 5.84804 2.63417 5.85211C2.63417 5.85752 2.63417 5.86542 2.63417 5.86675V6.12221C2.35876 5.81902 1.95392 5.62757 1.50159 5.62757C0.672911 5.62757 0 6.27142 0 7.06431V11.4901C0 12.283 0.672911 12.9268 1.50159 12.9268C1.95392 12.9268 2.35876 12.7353 2.63417 12.4322V13.0521C2.63417 13.8879 3.34896 14.5718 4.22249 14.5718H4.62552V16.5406C4.62552 17.3335 5.29844 17.9774 6.12712 17.9774C6.9558 17.9774 7.62871 17.3335 7.62871 16.5406V14.5718H8.32594V16.5406C8.32594 17.3335 8.99885 17.9774 9.82754 17.9774C10.6562 17.9774 11.3291 17.3335 11.3291 16.5406V14.5718H11.7322C12.6057 14.5718 13.3205 13.8879 13.3205 13.0521V12.4322C13.5959 12.7353 14.0007 12.9268 14.4531 12.9268C15.2817 12.9268 15.9547 12.283 15.9547 11.4901V7.06431C15.9547 6.27142 15.2817 5.62757 14.4531 5.62757C14.0007 5.62757 13.5959 5.81902 13.3205 6.12221V5.87163V5.86675C13.3205 5.85892 13.3205 5.85113 13.3205 5.85211C13.3206 5.83651 13.3205 5.82409 13.3205 5.81469C13.3205 4.16004 12.3682 2.71143 10.9346 1.86243L11.5315 0.832461C11.6775 0.580443 11.5808 0.256333 11.3172 0.116531C11.2342 0.0725076 11.1431 0.0522484 11.0553 0.051446C10.8607 0.0496634 10.6696 0.14782 10.569 0.321547L9.94488 1.40032C9.33462 1.18485 8.67063 1.06677 7.97733 1.06677C7.28473 1.06677 6.61952 1.18364 6.00978 1.3987L5.38567 0.321547C5.28503 0.147819 5.09397 0.0496675 4.89931 0.051446V0.0514475Z" fill="white"/>
<path d="M1.5017 6.00192C0.883303 6.00192 0.391235 6.47274 0.391235 7.06443V11.4902C0.391235 12.0819 0.883303 12.5527 1.5017 12.5527C2.1201 12.5527 2.61217 12.0819 2.61217 11.4902V7.06443C2.61217 6.47274 2.1201 6.00192 1.5017 6.00192ZM14.4532 6.00192C13.8348 6.00192 13.3427 6.47274 13.3427 7.06443V11.4902C13.3427 12.0819 13.8348 12.5527 14.4532 12.5527C15.0716 12.5527 15.5636 12.0819 15.5636 11.4902V7.06443C15.5636 6.47274 15.0716 6.00192 14.4532 6.00192Z" fill="#E0E5F2"/>
<path d="M6.12719 11.0524C5.50879 11.0524 5.01672 11.5232 5.01672 12.1149V16.5407C5.01672 17.1324 5.50879 17.6032 6.12719 17.6032C6.74559 17.6032 7.23765 17.1324 7.23765 16.5407V12.1149C7.23765 11.5232 6.74559 11.0524 6.12719 11.0524ZM9.82761 11.0524C9.20921 11.0524 8.71714 11.5232 8.71714 12.1149V16.5407C8.71714 17.1324 9.20921 17.6032 9.82761 17.6032C10.446 17.6032 10.9381 17.1324 10.9381 16.5407V12.1149C10.9381 11.5232 10.446 11.0524 9.82761 11.0524Z" fill="#E0E5F2"/>
<path d="M4.90269 0.425728C4.87644 0.425984 4.85198 0.432465 4.82786 0.445253C4.74868 0.48725 4.72264 0.574313 4.76664 0.65027L5.5489 2.0024C4.04387 2.75169 3.02731 4.17563 3.02527 5.80985H12.9293C12.9273 4.17563 11.9107 2.75169 10.4057 2.0024L11.188 0.65027C11.232 0.574313 11.2059 0.48725 11.1267 0.445253C11.1026 0.432465 11.0782 0.425967 11.0519 0.425728C10.9957 0.425209 10.9424 0.452074 10.9125 0.503829L10.12 1.87061C9.47174 1.59548 8.74461 1.44105 7.9773 1.44105C7.20999 1.44105 6.48286 1.59548 5.83459 1.87061L5.04213 0.503829C5.01215 0.452074 4.95888 0.425212 4.90269 0.425728ZM3.02527 6.18409V13.0521C3.02527 13.6867 3.55922 14.1976 4.22246 14.1976H11.7321C12.3954 14.1976 12.9293 13.6867 12.9293 13.0521V6.18409H3.02527Z" fill="#E0E5F2"/>
<path d="M5.6918 3.28467C5.46571 3.28467 5.27856 3.46373 5.27856 3.68006C5.27856 3.89638 5.46571 4.07544 5.6918 4.07544C5.91789 4.07544 6.10504 3.89638 6.10504 3.68006C6.10504 3.46373 5.91789 3.28467 5.6918 3.28467ZM10.2629 3.28467C10.0368 3.28467 9.84967 3.46373 9.84967 3.68006C9.84967 3.89638 10.0368 4.07544 10.2629 4.07544C10.489 4.07544 10.6761 3.89638 10.6761 3.68006C10.6761 3.46373 10.489 3.28467 10.2629 3.28467Z" fill="white"/>
</svg>
